<?xml version="1.0" standalone="no"?>
<!DOCTYPE svg PUBLIC "-//W3C//DTD SVG 20010904//EN"
 "http://www.w3.org/TR/2001/REC-SVG-20010904/DTD/svg10.dtd">
<svg version="1.0" xmlns="http://www.w3.org/2000/svg"
 width="1536.000000pt" height="1024.000000pt" viewBox="0 0 1536.000000 1024.000000"
 preserveAspectRatio="xMidYMid meet">

<g transform="translate(0.000000,1024.000000) scale(0.100000,-0.100000)"
fill="#000000" stroke="none">
<path d="M11510 9463 c0 -57 46 -521 74 -743 33 -262 61 -530 96 -920 43 -467
71 -765 73 -765 1 -1 224 -69 496 -152 l495 -151 60 18 c34 10 187 55 341 100
154 45 353 103 443 129 89 26 164 50 167 52 2 3 25 230 50 505 25 274 57 591
70 704 35 291 52 457 70 680 8 107 22 267 30 355 8 88 15 175 15 193 l0 32
-1240 0 -1240 0 0 -37z m1287 -180 l-48 -4 3 -130 c2 -71 0 -129 -4 -129 -5 0
-8 61 -8 135 l0 135 53 -2 52 -2 -48 -3z m146 0 c-13 -2 -33 -2 -45 0 -13 2
-3 4 22 4 25 0 35 -2 23 -4z m64 1 c-3 -3 -12 -4 -19 -1 -8 3 -5 6 6 6 11 1
17 -2 13 -5z m176 -1 c-13 -2 -35 -2 -50 0 -16 2 -5 4 22 4 28 0 40 -2 28 -4z
m235 0 c-16 -2 -40 -2 -55 0 -16 2 -3 4 27 4 30 0 43 -2 28 -4z m89 1 c-3 -3
-12 -4 -19 -1 -8 3 -5 6 6 6 11 1 17 -2 13 -5z m56 -1 c-7 -2 -21 -2 -30 0
-10 3 -4 5 12 5 17 0 24 -2 18 -5z m-720 -260 c-13 -2 -33 -2 -45 0 -13 2 -3
4 22 4 25 0 35 -2 23 -4z m70 0 c-7 -2 -21 -2 -30 0 -10 3 -4 5 12 5 17 0 24
-2 18 -5z m44 1 c-3 -3 -12 -4 -19 -1 -8 3 -5 6 6 6 11 1 17 -2 13 -5z m40 0
c-3 -3 -12 -4 -19 -1 -8 3 -5 6 6 6 11 1 17 -2 13 -5z m400 0 c-3 -3 -12 -4
-19 -1 -8 3 -5 6 6 6 11 1 17 -2 13 -5z m101 -1 c-10 -2 -28 -2 -40 0 -13 2
-5 4 17 4 22 1 32 -1 23 -4z m43 -17 c2 -3 -2 -75 -10 -160 l-15 -156 -618 0
-618 0 5 -37 c2 -21 10 -92 16 -158 6 -66 12 -121 13 -123 2 -1 265 -2 585 -2
l583 0 -6 -48 c-11 -84 -66 -656 -74 -776 -5 -64 -11 -117 -13 -119 -2 -2
-149 -47 -325 -100 l-322 -96 -328 97 -329 97 -17 190 c-9 105 -19 209 -21
233 l-5 42 153 0 153 0 5 -32 c3 -18 9 -71 12 -118 l7 -86 183 -45 183 -46
183 48 c100 27 183 50 184 51 1 2 8 71 14 153 7 83 14 171 18 198 l6 47 -556
0 -556 0 -5 33 c-3 17 -10 88 -16 157 -6 69 -24 261 -40 426 -17 166 -30 309
-30 318 0 15 67 16 798 16 439 0 801 -2 803 -4z m-789 -433 c-5 -181 -8 -199
-10 -50 -1 81 1 147 6 147 4 0 6 -44 4 -97z m45 -189 c-3 -3 -12 -4 -19 -1 -8
3 -5 6 6 6 11 1 17 -2 13 -5z m116 -1 c-7 -2 -19 -2 -25 0 -7 3 -2 5 12 5 14
0 19 -2 13 -5z m130 0 c-7 -2 -19 -2 -25 0 -7 3 -2 5 12 5 14 0 19 -2 13 -5z
m140 0 c-13 -2 -35 -2 -50 0 -16 2 -5 4 22 4 28 0 40 -2 28 -4z m84 1 c-3 -3
-12 -4 -19 -1 -8 3 -5 6 6 6 11 1 17 -2 13 -5z m80 0 c-3 -3 -12 -4 -19 -1 -8
3 -5 6 6 6 11 1 17 -2 13 -5z m56 -1 c-7 -2 -21 -2 -30 0 -10 3 -4 5 12 5 17
0 24 -2 18 -5z m84 -175 c-3 -8 -6 -5 -6 6 -1 11 2 17 5 13 3 -3 4 -12 1 -19z
m-735 -476 c2 -83 0 -152 -4 -152 -5 0 -7 105 -6 233 2 232 6 205 10 -81z m-5
-744 c-1 -46 -3 -11 -3 77 0 88 2 125 3 83 2 -42 2 -114 0 -160z"/>
<path d="M8230 8282 c-46 -22 -73 -74 -65 -126 7 -48 27 -87 80 -156 57 -73
78 -116 134 -279 51 -146 79 -207 118 -259 l24 -32 -20 -83 c-61 -254 -12
-499 114 -577 79 -49 131 0 150 138 4 28 11 52 16 52 5 0 9 -4 9 -9 0 -45 158
-238 273 -333 l52 -43 -37 50 c-138 184 -232 344 -279 478 -13 37 -26 67 -29
67 -15 0 -74 -121 -104 -210 -31 -95 -33 -99 -49 -82 -9 10 -26 40 -39 67 -20
44 -23 66 -22 175 0 101 6 145 27 230 15 58 27 110 27 115 0 6 -18 32 -40 59
-46 56 -58 80 -130 274 -40 109 -68 166 -117 239 -73 108 -78 136 -24 141 46
5 122 -21 212 -73 46 -27 98 -48 135 -54 225 -42 451 -184 611 -385 85 -107
111 -154 219 -393 92 -205 135 -283 176 -320 13 -11 64 -38 113 -60 118 -53
206 -105 300 -178 l76 -60 -107 -7 c-104 -7 -206 -29 -231 -50 -18 -14 14 -72
78 -142 46 -50 73 -67 221 -140 92 -46 168 -81 168 -79 0 2 -17 24 -37 49 -42
50 -146 138 -235 200 -32 21 -58 42 -58 46 0 10 119 45 225 66 l86 17 -63 75
c-36 41 -89 97 -119 124 -66 60 -203 151 -286 190 -60 28 -62 31 -111 125 -28
53 -82 167 -121 255 -84 189 -153 295 -269 418 -178 186 -372 305 -571 348
-60 13 -110 32 -157 60 -75 44 -206 90 -257 90 -18 0 -48 -8 -67 -18z"/>
<path d="M8625 7855 c19 -32 37 -67 41 -77 14 -46 60 13 50 66 -8 44 -26 57
-81 64 l-45 5 35 -58z"/>
<path d="M2475 6683 c-392 -35 -784 -136 -1051 -271 -164 -83 -362 -244 -450
-367 -133 -187 -166 -387 -96 -589 135 -391 687 -714 1397 -817 158 -22 436
-41 531 -34 38 2 121 7 185 10 357 17 773 123 1069 272 172 86 286 169 403
293 228 242 271 549 112 805 -100 162 -281 317 -493 424 -264 133 -613 230
-954 266 -134 14 -534 19 -653 8z m287 -298 c2 -3 -5 -51 -17 -107 -12 -57
-24 -117 -28 -134 l-6 -31 162 -5 c138 -4 170 -8 213 -27 66 -28 109 -74 124
-130 13 -50 15 -35 -47 -358 l-46 -243 -114 0 c-62 0 -113 4 -113 8 0 5 20
109 45 232 25 123 45 243 45 267 0 66 -25 77 -176 82 -112 3 -122 1 -127 -15
-3 -11 -29 -144 -58 -296 l-53 -278 -119 0 c-119 0 -119 0 -114 23 3 12 42
211 87 442 44 231 87 453 95 494 8 40 15 75 15 77 0 6 226 5 232 -1z m-710
-285 c92 -6 115 -11 172 -39 102 -50 146 -128 146 -256 0 -172 -95 -327 -243
-400 -93 -45 -149 -55 -322 -55 l-142 0 -28 -140 -28 -140 -113 0 c-97 0 -114
2 -114 16 0 28 188 1003 196 1015 6 11 302 10 476 -1z m1881 -15 c77 -20 140
-65 174 -123 26 -44 28 -55 28 -157 -1 -90 -5 -120 -23 -166 -51 -128 -140
-215 -264 -259 -53 -19 -90 -23 -234 -27 l-172 -5 -16 -87 c-9 -47 -21 -110
-27 -138 l-10 -53 -120 0 c-110 0 -120 2 -115 18 6 20 196 1006 196 1017 0 15
520 -3 583 -20z"/>
<path d="M1737 5738 c-20 -106 -37 -199 -37 -207 0 -10 25 -12 128 -9 141 4
186 19 235 77 53 64 76 204 44 268 -25 48 -76 63 -215 63 l-118 0 -37 -192z"/>
<path d="M3516 5743 c-20 -104 -39 -196 -42 -205 -5 -16 5 -18 104 -18 132 0
199 17 246 65 66 65 95 232 50 291 -30 41 -75 52 -205 53 l-116 1 -37 -187z"/>
<path d="M5062 6392 c-18 -10 -42 -31 -52 -48 -19 -27 -20 -50 -20 -416 l0
-388 90 0 90 0 0 337 c0 185 4 333 8 328 5 -6 60 -129 122 -275 133 -314 152
-351 191 -374 73 -43 207 -26 248 32 10 15 75 160 145 322 70 162 131 299 136
304 7 7 10 -111 10 -332 l0 -342 90 0 90 0 0 384 c0 382 0 383 -23 417 -32 48
-79 69 -157 69 -80 0 -118 -21 -153 -82 -13 -24 -80 -175 -148 -335 -68 -161
-127 -293 -130 -293 -8 0 -91 182 -196 430 -87 204 -112 246 -158 266 -47 19
-142 17 -183 -4z"/>
<path d="M7531 6389 c-62 -12 -110 -40 -145 -83 -30 -37 -31 -40 -31 -145 0
-100 2 -110 27 -148 19 -28 45 -50 85 -69 53 -27 71 -29 208 -36 83 -3 165 -7
183 -7 21 -1 42 -10 57 -26 22 -21 25 -33 25 -90 0 -72 -19 -104 -62 -106 -13
0 -135 -2 -273 -3 l-250 -3 0 -64 0 -64 270 0 c296 0 342 6 420 56 62 39 85
90 85 189 0 90 -22 145 -71 183 -56 43 -86 49 -287 61 -178 11 -194 13 -215
34 -18 19 -22 33 -22 87 0 54 4 69 23 87 22 23 27 23 302 26 l280 3 0 64 0 65
-282 -1 c-156 -1 -303 -5 -327 -10z"/>
<path d="M8515 6390 c-152 -9 -226 -45 -261 -127 -18 -41 -20 -506 -3 -568 6
-22 28 -56 48 -76 57 -58 112 -69 338 -70 l191 -2 67 -67 67 -67 99 -1 c54 0
99 3 99 7 0 3 -34 40 -75 81 -41 41 -75 77 -75 80 0 3 13 12 29 22 61 34 64
52 59 352 -3 260 -4 273 -27 319 -25 51 -73 90 -132 107 -43 13 -281 18 -424
10z m372 -146 c50 -37 53 -52 53 -290 0 -207 -1 -223 -20 -245 l-20 -24 -65
68 -65 67 -90 0 c-49 0 -90 -3 -90 -7 1 -5 27 -37 60 -73 l59 -65 -82 -3
c-100 -4 -137 2 -171 29 l-26 20 0 240 c0 153 4 248 11 260 22 41 63 49 246
46 156 -2 174 -4 200 -23z"/>
<path d="M9210 6044 c0 -407 -1 -404 78 -447 78 -42 120 -47 397 -53 l265 -5
0 65 0 66 -242 0 c-221 0 -246 2 -274 19 -21 13 -33 30 -38 51 -3 18 -6 174
-6 346 l0 314 -90 0 -90 0 0 -356z"/>
<path d="M6362 5911 l3 -229 31 -38 c38 -47 103 -81 169 -88 84 -9 244 -16
358 -16 l107 0 0 -38 c0 -27 -7 -45 -21 -58 -20 -18 -38 -19 -330 -16 l-309 2
0 -70 0 -70 288 0 c313 0 379 7 458 45 41 20 57 35 73 69 20 40 21 59 21 389
l0 347 -90 0 -90 0 0 -235 0 -235 -200 0 c-224 0 -262 8 -281 57 -6 17 -9 100
-7 221 l3 192 -93 0 -93 0 3 -229z"/>
<path d="M11600 6104 c0 -23 31 -360 80 -869 22 -225 44 -466 50 -535 6 -69
15 -159 20 -200 6 -41 23 -221 40 -399 16 -178 30 -325 32 -326 3 -2 545 -171
829 -259 64 -20 124 -36 134 -36 9 0 168 48 353 106 186 58 398 125 472 148
l135 42 17 195 c9 107 21 248 27 314 13 142 46 505 96 1025 19 206 42 449 50
540 8 91 17 186 19 213 l5 47 -777 0 c-427 0 -958 3 -1179 6 -375 4 -403 4
-403 -12z m2145 -226 c-5 -42 -32 -359 -60 -713 -64 -810 -101 -1234 -108
-1241 -9 -9 -774 -244 -795 -244 -9 0 -12 36 -12 133 l0 133 121 37 c96 30
124 35 135 26 11 -9 18 -9 26 -1 9 9 6 12 -12 13 l-25 1 25 8 c40 13 54 12 42
-3 -15 -18 -2 -32 33 -34 l30 -2 -34 13 c-23 8 -31 15 -23 20 7 4 10 11 7 15
-2 5 16 14 41 21 34 10 48 10 57 1 6 -6 15 -11 21 -11 5 0 2 6 -8 13 -15 11
-12 15 33 31 49 17 88 16 77 -3 -3 -5 1 -11 9 -15 8 -3 17 -1 20 4 3 4 -1 11
-7 13 -8 4 -7 6 4 6 9 1 20 5 23 11 4 7 -2 7 -19 0 -14 -5 -28 -6 -30 -1 -3 4
11 13 31 19 31 10 40 9 55 -5 10 -9 21 -13 25 -10 3 4 0 7 -8 7 -11 0 -11 2 1
10 11 7 11 10 2 10 -8 0 -10 5 -6 13 5 7 0 6 -11 -3 -17 -14 -18 -12 -12 50 4
36 14 156 24 268 9 111 20 202 24 202 4 0 5 8 2 18 -2 10 3 94 11 186 9 92 14
172 11 177 -4 5 -147 9 -349 9 l-343 0 2 23 c1 12 3 75 4 140 l1 117 349 0
c274 0 351 3 359 13 8 10 42 262 42 312 0 3 -170 5 -377 5 l-378 0 3 125 3
125 484 0 485 0 -5 -42z m-233 -225 c2 -5 -3 -71 -11 -148 l-16 -140 -582 -3
-583 -2 1 -33 c0 -17 6 -88 12 -157 l12 -125 551 4 c320 2 553 0 556 -5 3 -5
-3 -92 -13 -194 -10 -102 -28 -300 -40 -440 -13 -140 -24 -256 -25 -258 -1 -2
-138 -46 -304 -98 l-302 -94 -77 23 c-42 13 -184 55 -317 93 l-241 69 -17 175
c-9 96 -20 199 -23 228 l-6 52 155 0 155 0 11 -116 c5 -63 12 -118 15 -120 2
-3 80 -25 172 -49 121 -32 173 -41 189 -35 11 5 84 26 161 46 77 20 143 41
147 48 4 6 8 38 9 71 0 33 6 117 13 188 l12 127 -528 0 -528 0 0 23 c0 12 -18
211 -40 442 -22 231 -40 423 -40 428 0 4 342 7 759 7 418 0 761 -3 763 -7z
m-406 -966 c-7 -60 -26 -275 -26 -298 0 -10 -20 -20 -67 -32 -38 -9 -107 -28
-155 -41 l-88 -25 0 227 0 227 171 -3 171 -3 -6 -52z"/>
<path d="M12790 5873 c0 -17 6 -34 13 -36 10 -4 10 -6 0 -6 -9 -1 -13 -20 -13
-63 0 -72 9 -74 12 -2 1 27 7 55 14 61 16 17 27 16 21 0 -3 -8 1 -14 8 -14 11
0 11 5 4 20 -8 14 -7 22 2 31 9 8 10 8 5 -2 -4 -7 -1 -15 8 -18 9 -3 13 -10
10 -15 -3 -5 -2 -9 3 -8 20 3 25 -2 13 -16 -11 -13 -8 -14 19 -11 30 3 47 -5
34 -17 -3 -4 -14 -2 -24 4 -19 10 -24 3 -20 -28 1 -7 -2 -13 -8 -13 -5 0 -12
6 -14 13 -4 9 -6 9 -6 -1 -1 -7 -5 -10 -11 -7 -5 3 -10 1 -10 -5 0 -7 7 -10
15 -6 8 3 15 1 15 -4 0 -6 -3 -10 -7 -11 -5 0 -18 -2 -30 -3 -39 -4 -37 -15 1
-12 41 4 46 -1 14 -14 -22 -8 -22 -9 4 -9 20 -1 26 3 23 17 -1 9 4 25 12 34 8
9 12 22 8 27 -3 6 1 11 10 11 9 0 13 -4 10 -10 -3 -5 0 -19 8 -31 15 -20 35
-10 22 11 -3 6 3 10 15 10 17 0 19 -3 10 -19 -8 -17 -7 -19 16 -16 18 2 28 -4
34 -19 6 -16 8 -11 8 22 0 23 -5 42 -10 42 -5 0 -6 5 -3 10 9 15 -2 12 -19 -6
-9 -8 -16 -11 -16 -6 0 6 -9 8 -20 5 -12 -3 -20 0 -20 6 0 7 4 10 8 7 4 -2 14
0 22 6 13 8 12 9 -1 5 -10 -3 -26 5 -40 19 -12 13 -21 24 -18 25 31 6 55 4 61
-5 5 -8 11 -7 20 2 10 10 8 14 -10 18 -12 4 -22 13 -22 21 0 8 -4 12 -10 8 -5
-3 -7 -13 -4 -23 5 -14 4 -14 -4 -2 -6 8 -9 17 -6 21 2 4 0 10 -6 14 -5 3 -10
-3 -10 -15 0 -12 -4 -19 -9 -16 -5 3 -8 -1 -7 -9 0 -7 -3 -14 -9 -13 -5 0 -9
4 -7 9 1 5 -8 9 -20 9 -12 0 -18 3 -15 7 4 3 2 12 -3 18 -8 9 -6 14 5 19 9 3
15 0 15 -9 0 -7 5 -17 11 -21 8 -4 9 0 4 15 -3 12 -2 21 3 21 6 0 12 -5 14
-12 3 -8 7 -6 11 5 5 14 -2 16 -63 14 l-70 -2 0 -32z m50 7 c0 -5 -4 -10 -10
-10 -5 0 -9 -4 -7 -9 1 -5 -2 -9 -8 -10 -13 -1 -13 22 0 31 14 11 25 10 25 -2z
m107 -135 c0 -8 -4 -12 -9 -9 -4 3 -8 9 -8 15 0 5 4 9 8 9 5 0 9 -7 9 -15z
m69 -17 c-10 -6 -20 -7 -24 -3 -9 8 20 25 31 18 5 -3 2 -10 -7 -15z"/>
<path d="M12972 5903 c11 -3 15 -10 11 -21 -6 -14 -4 -15 9 -5 8 7 18 10 21 6
4 -3 7 0 7 9 0 10 -10 15 -32 15 -18 0 -25 -2 -16 -4z"/>
<path d="M13025 5887 c-19 -22 -19 -23 -2 -40 17 -17 15 -43 -4 -32 -5 4 -9 1
-9 -5 0 -6 14 -13 30 -17 39 -7 48 -22 25 -40 -11 -7 -14 -13 -8 -13 5 0 18 9
28 20 11 12 13 20 6 20 -7 0 -9 5 -6 10 3 6 1 10 -4 10 -6 0 -11 7 -11 16 0 8
-4 13 -8 10 -4 -2 -13 4 -20 15 -7 11 -8 19 -2 19 5 0 9 11 8 25 -1 14 -3 25
-3 25 0 0 -9 -11 -20 -23z m30 -77 c3 -5 -1 -10 -10 -10 -9 0 -13 5 -10 10 3
6 8 10 10 10 2 0 7 -4 10 -10z"/>
<path d="M13064 5898 c4 -30 36 -54 36 -27 0 5 -4 7 -10 4 -5 -3 -10 1 -10 9
0 8 -4 17 -9 20 -5 4 -8 0 -7 -6z"/>
<path d="M13170 5900 c14 -9 7 -14 -13 -11 -14 2 -38 -27 -27 -34 6 -4 8 -11
4 -16 -3 -5 -11 -6 -17 -2 -7 4 -5 -1 3 -11 8 -10 23 -22 35 -26 19 -7 18 -9
-7 -18 -25 -10 -26 -13 -15 -41 6 -17 15 -31 19 -31 11 0 5 22 -10 38 -7 8
-10 17 -7 20 3 4 10 0 15 -8 9 -14 14 -7 11 14 -1 5 6 5 15 2 10 -4 21 -1 26
6 5 9 8 10 8 1 0 -6 -4 -14 -10 -18 -5 -3 -6 -13 -3 -22 5 -12 2 -15 -8 -11
-10 4 -15 -3 -16 -21 -2 -25 1 -27 49 -29 44 -1 49 0 33 12 -17 12 -17 14 6
29 13 10 26 13 29 7 3 -5 11 0 19 11 10 17 10 20 -1 13 -19 -12 -51 -13 -64
-2 -9 6 -11 -1 -10 -25 3 -32 1 -34 -26 -33 -15 0 -26 5 -24 11 2 5 10 10 18
9 10 -1 14 10 14 39 0 23 6 43 13 45 8 3 6 8 -6 18 -10 7 -13 14 -6 14 7 0 10
7 6 17 -4 10 -2 14 4 10 14 -9 43 2 43 14 0 6 -8 5 -19 0 -24 -13 -47 9 -29
27 9 9 3 12 -27 12 -30 0 -36 -3 -25 -10z m37 -47 c0 -27 -6 -53 -13 -61 -8
-7 -14 -9 -14 -3 0 6 -12 18 -27 26 -25 15 -26 16 -5 11 17 -3 22 -1 19 9 -3
7 0 18 6 24 9 9 7 11 -8 6 -12 -4 -8 1 10 14 17 11 30 21 31 21 1 0 1 -21 1
-47z"/>
<path d="M13181 5840 c-6 -18 -6 -30 0 -30 5 0 9 3 10 8 0 4 2 17 5 30 6 31
-2 27 -15 -8z"/>
<path d="M13300 5895 c0 -8 2 -15 4 -15 2 0 6 7 10 15 3 8 1 15 -4 15 -6 0
-10 -7 -10 -15z"/>
<path d="M13356 5901 c3 -3 30 -6 60 -8 60 -2 88 -22 80 -55 -2 -10 0 -18 5
-18 10 0 12 13 10 45 -1 11 2 16 6 10 4 -5 19 -10 32 -11 l23 -1 -23 18 c-15
11 -28 14 -33 8 -14 -13 -29 -11 -23 4 3 9 -14 12 -69 12 -40 1 -71 -1 -68 -4z"/>
<path d="M13550 5900 c0 -5 5 -10 10 -10 6 0 10 5 10 10 0 6 -4 10 -10 10 -5
0 -10 -4 -10 -10z"/>
<path d="M13591 5894 c0 -11 3 -14 6 -6 3 7 2 16 -1 19 -3 4 -6 -2 -5 -13z"/>
<path d="M13617 5894 c2 -7 -5 -18 -17 -24 -20 -11 -20 -12 -4 -24 11 -8 14
-18 9 -27 -5 -8 -4 -11 1 -6 5 5 9 21 9 35 0 22 5 27 22 26 13 -1 20 3 17 7
-3 5 -10 6 -16 3 -7 -5 -9 -2 -6 8 4 8 1 15 -7 15 -7 0 -11 -6 -8 -13z"/>
<path d="M13680 5894 c0 -8 5 -12 10 -9 6 4 8 11 5 16 -9 14 -15 11 -15 -7z"/>
<path d="M13315 5874 c-14 -22 -15 -28 -4 -35 8 -5 9 -9 4 -9 -6 0 -17 6 -24
13 -10 10 -11 6 -7 -17 3 -16 8 -31 12 -35 4 -3 4 2 1 12 -5 13 -1 17 15 17
17 0 18 -2 8 -15 -10 -12 -10 -15 3 -15 12 0 16 8 14 29 -1 16 -5 29 -8 28 -4
-1 -7 3 -8 8 -1 6 3 10 8 10 5 0 13 3 17 8 4 4 2 7 -5 7 -7 0 -9 5 -6 10 14
23 -4 8 -20 -16z"/>
<path d="M13716 5884 c-3 -9 -3 -21 1 -27 4 -7 -1 -6 -10 2 -10 8 -20 11 -24
7 -3 -3 -1 -6 6 -6 7 0 10 -4 7 -9 -3 -5 2 -11 12 -13 15 -4 19 2 20 28 3 37
-2 44 -12 18z"/>
<path d="M13437 5863 c17 -14 16 -14 -4 -10 -13 3 -23 1 -23 -4 0 -5 10 -9 23
-9 15 -1 4 -9 -35 -29 -32 -16 -54 -31 -51 -35 3 -3 -1 -14 -11 -25 -16 -18
-16 -18 8 -14 18 4 25 11 23 25 -1 15 7 24 31 32 18 6 30 15 25 20 -4 5 -1 6
7 4 8 -3 14 -10 13 -15 -2 -12 35 -14 42 -2 6 8 -8 13 -27 10 -10 -1 -10 -2 1
35 8 29 7 32 -15 32 -23 0 -23 -1 -7 -15z"/>
<path d="M13073 5835 c7 -14 18 -25 26 -25 10 0 7 8 -9 25 -29 31 -31 31 -17
0z"/>
<path d="M13380 5850 c-13 -8 -12 -10 3 -10 9 0 17 5 17 10 0 12 -1 12 -20 0z"/>
<path d="M13627 5853 c-3 -5 0 -19 8 -29 15 -20 18 -11 6 20 -4 11 -10 15 -14
9z"/>
<path d="M13650 5851 c0 -5 7 -12 16 -15 14 -5 15 -4 4 9 -14 17 -20 19 -20 6z"/>
<path d="M13347 5837 c-3 -8 -2 -20 3 -26 5 -9 8 -4 8 13 0 29 -3 32 -11 13z"/>
<path d="M13566 5837 c3 -10 9 -15 12 -12 3 3 0 11 -7 18 -10 9 -11 8 -5 -6z"/>
<path d="M13524 5829 c-4 -7 -3 -9 4 -5 5 3 12 0 15 -6 2 -7 7 -10 11 -7 4 3
0 12 -8 18 -11 9 -16 9 -22 0z"/>
<path d="M13370 5820 c0 -5 4 -10 9 -10 6 0 13 5 16 10 3 6 -1 10 -9 10 -9 0
-16 -4 -16 -10z"/>
<path d="M13685 5807 c-4 -14 -5 -32 -2 -39 3 -7 6 0 6 17 1 21 4 26 12 18 8
-8 8 -17 0 -30 -7 -14 -7 -24 2 -33 10 -12 9 -12 -5 -1 -21 16 -37 7 -35 -19
1 -10 5 -16 9 -14 4 3 8 0 8 -7 0 -7 3 -9 6 -6 4 4 1 13 -6 22 -20 24 -6 27
18 5 l21 -20 -3 40 c-2 22 1 43 5 46 5 3 9 12 9 20 0 9 -5 12 -11 8 -6 -3 -15
-1 -19 7 -6 9 -10 6 -15 -14z"/>
<path d="M13514 5794 c9 -8 14 -20 11 -25 -4 -5 -1 -9 4 -9 14 0 14 6 1 31 -6
10 -15 19 -21 19 -6 0 -3 -7 5 -16z"/>
<path d="M13570 5798 c0 -9 -6 -19 -12 -21 -10 -4 -10 -6 0 -6 14 -1 28 26 18
36 -3 4 -6 -1 -6 -9z"/>
<path d="M13623 5790 c1 -8 -3 -15 -10 -15 -6 0 -14 -2 -17 -5 -3 -4 11 -6 32
-5 29 0 38 4 40 20 2 15 -3 20 -22 20 -17 0 -25 -5 -23 -15z"/>
<path d="M12830 5796 c0 -2 7 -9 15 -16 12 -10 15 -10 15 4 0 9 -7 16 -15 16
-8 0 -15 -2 -15 -4z"/>
<path d="M13110 5789 c0 -5 5 -7 10 -4 6 3 10 8 10 11 0 2 -4 4 -10 4 -5 0
-10 -5 -10 -11z"/>
<path d="M13237 5779 c7 -7 15 -10 18 -7 3 3 -2 9 -12 12 -14 6 -15 5 -6 -5z"/>
<path d="M13490 5775 c0 -8 4 -15 10 -15 5 0 7 7 4 15 -4 8 -8 15 -10 15 -2 0
-4 -7 -4 -15z"/>
<path d="M13040 5769 c0 -5 5 -7 10 -4 6 3 10 8 10 11 0 2 -4 4 -10 4 -5 0
-10 -5 -10 -11z"/>
<path d="M13290 5770 c-9 -6 -10 -10 -3 -10 6 0 15 5 18 10 8 12 4 12 -15 0z"/>
<path d="M13436 5768 c3 -4 14 -12 24 -18 16 -8 19 -7 17 10 -1 14 -8 19 -23
18 -13 -1 -20 -6 -18 -10z"/>
<path d="M12823 5763 c-15 -5 -17 -23 -4 -23 5 0 11 7 15 15 3 8 4 15 3 14 -1
0 -8 -3 -14 -6z"/>
<path d="M13605 5741 c-3 -6 4 -8 15 -6 11 2 20 0 20 -6 0 -8 -14 -13 -32 -10
-4 0 -4 -7 -1 -16 4 -11 8 -13 11 -5 2 7 10 12 18 12 8 0 14 9 14 20 0 21 -33
29 -45 11z"/>
<path d="M13570 5731 c0 -5 5 -13 10 -16 6 -3 10 -2 10 4 0 5 -4 13 -10 16 -5
3 -10 2 -10 -4z"/>
<path d="M13079 5721 c8 -5 11 -15 9 -23 -4 -10 2 -14 18 -14 16 0 20 3 14 11
-6 7 -6 16 -2 20 4 5 2 5 -5 1 -6 -3 -14 -2 -18 4 -3 5 -12 10 -18 10 -8 0 -7
-3 2 -9z"/>
<path d="M12900 5718 c0 -2 9 -11 20 -21 11 -9 20 -13 20 -7 0 5 -9 14 -20 20
-11 6 -20 9 -20 8z"/>
<path d="M13440 5709 c0 -5 -5 -7 -12 -3 -6 4 -8 3 -4 -4 3 -5 0 -12 -6 -15
-7 -3 -4 -5 8 -4 12 1 21 8 21 19 1 10 0 18 -3 18 -2 0 -4 -5 -4 -11z"/>
<path d="M12996 5697 c-16 -12 -16 -13 3 -14 12 -1 21 4 21 13 0 17 -2 17 -24
1z"/>
<path d="M13290 5695 c-10 -12 -10 -15 2 -15 8 0 15 7 15 15 0 8 -1 15 -2 15
-2 0 -8 -7 -15 -15z"/>
<path d="M13324 5698 c-4 -7 -4 -10 1 -6 4 4 17 3 27 -3 15 -8 23 -8 32 1 8 8
7 10 -5 5 -10 -4 -20 -2 -24 4 -8 15 -22 14 -31 -1z"/>
<path d="M13473 5695 c0 -8 4 -12 9 -9 5 3 6 10 3 15 -9 13 -12 11 -12 -6z"/>
<path d="M13550 5685 c-7 -9 -10 -18 -7 -21 3 -3 10 4 17 15 13 25 8 27 -10 6z"/>
<path d="M13635 5691 c3 -6 -3 -15 -14 -20 -13 -7 -21 -8 -24 -1 -3 6 -5 6 -3
0 1 -7 5 -11 9 -11 4 1 16 1 28 1 11 0 17 5 14 10 -3 6 -1 10 5 10 6 0 8 5 5
10 -3 6 -11 10 -16 10 -6 0 -8 -4 -4 -9z"/>
<path d="M12798 5683 c6 -2 18 -2 25 0 6 3 1 5 -13 5 -14 0 -19 -2 -12 -5z"/>
<path d="M13682 5659 c-25 -31 -24 -39 3 -12 15 15 16 13 12 -31 -2 -26 -1
-49 4 -51 4 -3 7 24 8 60 0 36 0 65 -2 64 -1 0 -12 -13 -25 -30z"/>
<path d="M13560 5657 c-20 -16 -22 -46 -4 -71 8 -11 14 -15 14 -9 0 7 -4 14
-9 17 -10 7 -3 44 12 64 12 15 7 15 -13 -1z"/>
<path d="M13575 5639 c-4 -6 -5 -12 -2 -15 2 -3 7 2 10 11 7 17 1 20 -8 4z"/>
<path d="M13616 5642 c-2 -4 4 -9 15 -9 11 -1 17 2 14 8 -7 11 -22 12 -29 1z"/>
<path d="M13580 5610 c-9 -6 -10 -10 -3 -10 6 0 15 5 18 10 8 12 4 12 -15 0z"/>
<path d="M13620 5611 c0 -6 4 -12 8 -15 5 -3 9 1 9 9 0 8 -4 15 -9 15 -4 0 -8
-4 -8 -9z"/>
<path d="M13660 5610 c-9 -6 -10 -10 -3 -10 6 0 15 5 18 10 8 12 4 12 -15 0z"/>
<path d="M13583 5573 c1 -21 2 -21 19 -6 10 9 16 19 13 22 -4 3 -10 -1 -14 -8
-7 -11 -9 -11 -14 0 -3 8 -4 4 -4 -8z"/>
<path d="M13630 5551 c0 -5 7 -11 15 -15 19 -7 20 -26 1 -26 -17 0 -29 -27
-16 -35 6 -4 10 1 10 9 0 9 13 19 29 23 l28 8 -33 22 c-19 12 -34 18 -34 14z"/>
<path d="M13532 5504 c-1 -13 3 -24 9 -24 6 0 9 -7 5 -15 -3 -8 -1 -15 3 -15
5 0 11 7 15 15 3 8 1 15 -5 15 -6 0 -7 5 -3 12 5 7 3 8 -6 3 -10 -6 -12 -4 -7
8 3 9 3 18 -1 21 -4 2 -9 -6 -10 -20z"/>
<path d="M13584 5522 c4 -3 14 -7 22 -8 9 -1 13 0 10 4 -4 3 -14 7 -22 8 -9 1
-13 0 -10 -4z"/>
<path d="M13689 5498 c-5 -15 -4 -50 1 -53 3 -2 7 10 8 26 1 16 0 29 -3 29 -3
0 -5 -1 -6 -2z"/>
<path d="M13659 5488 c-5 -19 -8 -50 -4 -46 7 7 15 48 9 48 -2 0 -4 -1 -5 -2z"/>
<path d="M13600 5445 c7 -8 10 -28 8 -44 -3 -17 0 -27 5 -24 5 3 13 -1 18 -8
7 -11 9 -11 9 -1 0 7 5 10 12 6 7 -4 8 -3 4 5 -4 6 -11 9 -16 6 -5 -3 -11 -1
-15 5 -3 5 0 10 8 10 20 0 17 29 -5 36 -10 3 -18 10 -18 15 0 5 -5 9 -11 9 -8
0 -8 -5 1 -15z"/>
<path d="M13665 5419 c-4 -11 -4 -23 -1 -26 3 -4 6 1 6 10 0 8 5 17 12 19 9 3
9 6 1 11 -7 4 -14 -1 -18 -14z"/>
<path d="M13510 5386 c0 -9 5 -16 10 -16 6 0 10 4 10 9 0 6 -4 13 -10 16 -5 3
-10 -1 -10 -9z"/>
<path d="M13565 5380 c3 -5 8 -10 11 -10 2 0 4 5 4 10 0 6 -5 10 -11 10 -5 0
-7 -4 -4 -10z"/>
<path d="M13677 5348 c8 -46 13 -48 13 -5 0 21 -4 37 -10 37 -5 0 -7 -14 -3
-32z"/>
<path d="M13538 5342 c-10 -2 -18 -8 -18 -13 0 -12 17 -11 25 1 5 8 11 7 21
-1 8 -7 14 -7 14 -1 0 13 -20 19 -42 14z"/>
<path d="M12790 5303 c0 -21 3 -24 9 -14 5 8 7 20 4 28 -8 21 -13 15 -13 -14z"/>
<path d="M12850 5315 c0 -8 4 -15 8 -15 5 0 9 7 9 15 0 8 -4 15 -9 15 -4 0 -8
-7 -8 -15z"/>
<path d="M12888 5323 c7 -3 16 -2 19 1 4 3 -2 6 -13 5 -11 0 -14 -3 -6 -6z"/>
<path d="M12984 5315 c4 -24 16 -30 16 -7 0 12 -4 22 -9 22 -5 0 -8 -7 -7 -15z"/>
<path d="M13016 5317 c3 -10 9 -15 12 -12 3 3 0 11 -7 18 -10 9 -11 8 -5 -6z"/>
<path d="M13044 5298 c0 -18 3 -25 9 -19 7 7 17 6 31 -1 19 -10 20 -10 7 6 -8
9 -20 15 -28 12 -7 -3 -13 -2 -13 2 0 5 12 13 28 18 l27 10 -31 0 c-27 1 -30
-3 -30 -28z"/>
<path d="M13111 5308 c-10 -18 -11 -20 0 -10 20 18 33 15 18 -5 -7 -10 -1 -7
14 6 28 25 38 43 12 21 -10 -9 -15 -9 -15 -1 0 18 -14 13 -29 -11z"/>
<path d="M13208 5323 c7 -3 16 -2 19 1 4 3 -2 6 -13 5 -11 0 -14 -3 -6 -6z"/>
<path d="M13371 5314 c0 -11 3 -14 6 -6 3 7 2 16 -1 19 -3 4 -6 -2 -5 -13z"/>
<path d="M13491 5313 c-1 -25 6 -28 29 -12 13 9 13 10 -2 5 -10 -3 -18 1 -21
12 -3 12 -5 11 -6 -5z"/>
<path d="M13184 5291 c0 -22 3 -28 15 -24 13 5 14 3 4 -8 -19 -19 -16 -33 3
-15 8 9 12 20 9 26 -3 5 1 11 9 11 9 1 21 3 26 4 6 1 16 3 23 4 6 2 3 6 -8 11
-28 12 -37 12 -30 0 9 -14 -2 -12 -29 5 -21 14 -22 14 -22 -14z"/>
<path d="M13633 5303 c-3 -10 -8 -22 -11 -27 -3 -5 0 -6 6 -2 7 4 12 13 12 21
0 7 6 16 13 18 9 4 9 6 -1 6 -7 1 -15 -7 -19 -16z"/>
<path d="M13311 5301 c-11 -7 -10 -11 7 -20 17 -9 19 -8 15 9 -3 11 -6 20 -7
20 0 0 -7 -4 -15 -9z"/>
<path d="M13571 5305 c1 -19 18 -51 18 -35 0 8 -4 22 -9 30 -5 8 -9 11 -9 5z"/>
<path d="M13596 5298 c3 -5 10 -6 15 -3 13 9 11 12 -6 12 -8 0 -12 -4 -9 -9z"/>
<path d="M13357 5279 c4 -13 8 -18 11 -10 2 7 -1 18 -6 23 -8 8 -9 4 -5 -13z"/>
<path d="M13437 5279 c7 -7 15 -10 18 -7 3 3 -2 9 -12 12 -14 6 -15 5 -6 -5z"/>
<path d="M12910 5271 c0 -7 -6 -11 -13 -8 -8 3 -14 -1 -14 -9 0 -8 4 -14 7
-14 12 0 33 30 26 37 -3 3 -6 1 -6 -6z"/>
<path d="M12960 5276 c0 -2 7 -6 15 -10 8 -3 15 -1 15 4 0 6 -7 10 -15 10 -8
0 -15 -2 -15 -4z"/>
<path d="M13536 5271 c-12 -5 -15 -10 -9 -14 6 -4 16 0 23 8 14 17 13 17 -14
6z"/>
<path d="M12792 5250 c0 -14 2 -19 5 -12 2 6 2 18 0 25 -3 6 -5 1 -5 -13z"/>
<path d="M13053 5239 c-14 -35 -10 -37 11 -5 9 14 12 27 8 30 -5 3 -13 -8 -19
-25z"/>
<path d="M13135 5260 c3 -5 8 -10 11 -10 2 0 4 5 4 10 0 6 -5 10 -11 10 -5 0
-7 -4 -4 -10z"/>
<path d="M13285 5260 c-3 -6 1 -7 9 -4 18 7 21 14 7 14 -6 0 -13 -4 -16 -10z"/>
<path d="M13465 5260 c-3 -5 -2 -10 4 -10 5 0 13 5 16 10 3 6 2 10 -4 10 -5 0
-13 -4 -16 -10z"/>
<path d="M12961 5246 c-1 -13 -6 -16 -18 -11 -15 5 -16 4 -5 -6 15 -16 37 2
29 23 -4 8 -6 6 -6 -6z"/>
<path d="M13095 5250 c-3 -5 -1 -10 4 -10 6 0 11 5 11 10 0 6 -2 10 -4 10 -3
0 -8 -4 -11 -10z"/>
<path d="M13229 5243 c-13 -16 -12 -17 4 -4 9 7 17 15 17 17 0 8 -8 3 -21 -13z"/>
<path d="M13316 5243 c-6 -14 -5 -15 5 -6 7 7 10 15 7 18 -3 3 -9 -2 -12 -12z"/>
<path d="M13560 5240 c-9 -6 -10 -10 -3 -10 6 0 15 5 18 10 8 12 4 12 -15 0z"/>
<path d="M12804 5218 l-19 -23 23 19 c21 18 27 26 19 26 -2 0 -12 -10 -23 -22z"/>
<path d="M13120 5232 c0 -6 -7 -9 -15 -6 -8 4 -15 1 -15 -6 0 -6 5 -8 10 -5 6
3 10 0 10 -7 0 -8 5 -6 11 5 6 10 8 21 5 24 -3 4 -6 1 -6 -5z"/>
<path d="M13151 5226 c-8 -10 -9 -16 -1 -21 6 -4 9 -1 8 7 -2 7 3 12 10 10 8
-1 11 2 7 8 -8 13 -10 13 -24 -4z"/>
<path d="M13285 5230 c-3 -5 -1 -10 4 -10 6 0 11 5 11 10 0 6 -2 10 -4 10 -3
0 -8 -4 -11 -10z"/>
<path d="M13350 5220 c-13 -8 -12 -10 3 -10 9 0 17 5 17 10 0 12 -1 12 -20 0z"/>
<path d="M12910 5209 c0 -5 5 -7 10 -4 6 3 10 8 10 11 0 2 -4 4 -10 4 -5 0
-10 -5 -10 -11z"/>
<path d="M12972 5200 c-17 -27 -15 -35 4 -16 8 9 14 21 12 26 -2 6 -9 1 -16
-10z"/>
<path d="M13196 5205 c-3 -8 -1 -15 4 -15 6 0 10 7 10 15 0 8 -2 15 -4 15 -2
0 -6 -7 -10 -15z"/>
<path d="M13580 5215 c0 -5 5 -17 10 -25 5 -8 10 -10 10 -5 0 6 -5 17 -10 25
-5 8 -10 11 -10 5z"/>
<path d="M13625 5199 c-4 -6 -5 -12 -2 -15 2 -3 7 2 10 11 7 17 1 20 -8 4z"/>
<path d="M13026 5185 c-3 -8 -1 -15 4 -15 6 0 10 7 10 15 0 8 -2 15 -4 15 -2
0 -6 -7 -10 -15z"/>
<path d="M13280 5186 c0 -11 -8 -28 -17 -39 -17 -19 -17 -20 3 -9 26 14 35 34
23 53 -7 11 -9 10 -9 -5z"/>
<path d="M13335 5191 c-3 -5 0 -13 6 -17 7 -4 9 -3 5 4 -3 5 0 13 6 15 9 4 10
6 1 6 -6 1 -14 -3 -18 -8z"/>
<path d="M13376 5185 c4 -8 10 -15 16 -15 5 0 6 -5 2 -12 -5 -7 -3 -8 5 -4 9
6 8 13 -5 27 -21 23 -25 24 -18 4z"/>
<path d="M13543 5185 c-3 -9 -3 -18 -1 -21 3 -3 8 4 11 16 6 23 -1 27 -10 5z"/>
<path d="M12879 5187 c0 -1 -2 -13 -3 -26 -2 -19 -1 -21 8 -9 6 8 18 17 26 20
10 3 8 6 -8 10 -12 4 -22 5 -23 5z"/>
<path d="M12940 5190 c-8 -26 -7 -41 2 -32 6 6 8 16 5 24 -3 7 -6 11 -7 8z"/>
<path d="M12840 5170 c0 -5 5 -10 10 -10 6 0 10 5 10 10 0 6 -4 10 -10 10 -5
0 -10 -4 -10 -10z"/>
<path d="M12976 5161 c-17 -19 -17 -19 1 -15 11 3 20 12 20 20 0 18 0 18 -21
-5z"/>
<path d="M13070 5166 c0 -8 4 -17 8 -20 4 -2 8 4 8 15 0 10 -4 19 -8 19 -4 0
-8 -6 -8 -14z"/>
<path d="M13197 5169 c7 -7 15 -10 18 -7 3 3 -2 9 -12 12 -14 6 -15 5 -6 -5z"/>
<path d="M13236 5163 c-6 -14 -5 -15 5 -6 7 7 10 15 7 18 -3 3 -9 -2 -12 -12z"/>
<path d="M12811 5154 c0 -11 3 -14 6 -6 3 7 2 16 -1 19 -3 4 -6 -2 -5 -13z"/>
<path d="M13657 5158 c-2 -7 -1 -22 4 -33 6 -16 8 -14 8 13 1 33 -4 41 -12 20z"/>
<path d="M13134 5138 l-19 -23 23 19 c21 18 27 26 19 26 -2 0 -12 -10 -23 -22z"/>
<path d="M13175 5143 c2 -10 4 -20 5 -23 1 -3 2 -9 1 -13 -1 -5 4 -5 10 -2 7
5 7 11 1 17 -6 6 -8 17 -5 24 3 8 1 14 -5 14 -6 0 -9 -8 -7 -17z"/>
<path d="M13627 5140 c3 -11 9 -20 14 -20 4 0 7 9 6 20 -1 11 -7 20 -13 20 -7
0 -10 -8 -7 -20z"/>
<path d="M13211 5133 c7 -12 15 -20 18 -17 3 2 -3 12 -13 22 -17 16 -18 16 -5
-5z"/>
<path d="M13300 5141 c0 -6 4 -13 10 -16 6 -3 7 1 4 9 -7 18 -14 21 -14 7z"/>
<path d="M13327 5139 c7 -7 15 -10 18 -7 3 3 -2 9 -12 12 -14 6 -15 5 -6 -5z"/>
<path d="M12910 5129 c0 -5 5 -7 10 -4 6 3 10 8 10 11 0 2 -4 4 -10 4 -5 0
-10 -5 -10 -11z"/>
<path d="M12998 5123 c6 -2 18 -2 25 0 6 3 1 5 -13 5 -14 0 -19 -2 -12 -5z"/>
<path d="M13147 5123 c-2 -5 -3 -16 -2 -26 3 -15 1 -16 -13 -5 -10 8 -13 9 -9
1 4 -7 0 -13 -10 -16 -10 -3 -5 -5 12 -6 17 0 37 4 45 9 9 6 11 10 3 10 -7 0
-10 6 -7 14 6 15 -12 32 -19 19z"/>
<path d="M13540 5120 c-13 -8 -12 -10 3 -10 9 0 17 -5 17 -12 0 -6 3 -9 6 -5
3 3 2 12 -3 21 -6 10 -13 12 -23 6z"/>
<path d="M12793 5094 c0 -25 12 -32 20 -11 2 6 -1 17 -8 24 -10 9 -12 6 -12
-13z"/>
<path d="M12836 5111 c-3 -4 0 -8 7 -8 7 0 22 -3 35 -7 33 -11 27 0 -8 12 -16
6 -32 7 -34 3z"/>
<path d="M13080 5116 c0 -2 7 -7 16 -10 8 -3 12 -2 9 4 -6 10 -25 14 -25 6z"/>
<path d="M13248 5113 c7 -3 16 -2 19 1 4 3 -2 6 -13 5 -11 0 -14 -3 -6 -6z"/>
<path d="M13325 5110 c-3 -5 -1 -10 4 -10 6 0 11 5 11 10 0 6 -2 10 -4 10 -3
0 -8 -4 -11 -10z"/>
<path d="M13386 5108 c4 -6 -1 -17 -11 -25 -16 -11 -16 -13 -3 -13 9 0 19 7
22 16 9 23 7 34 -5 34 -5 0 -7 -5 -3 -12z"/>
<path d="M13606 5105 c3 -8 9 -14 12 -13 27 3 33 -4 27 -32 -4 -19 -3 -30 4
-30 6 0 11 13 11 30 0 23 -7 33 -30 45 -26 13 -29 13 -24 0z"/>
<path d="M12924 5102 c4 -7 -6 -15 -26 -21 l-33 -9 31 -1 c33 -1 53 22 32 35
-7 4 -8 3 -4 -4z"/>
<path d="M12957 5099 c7 -7 15 -10 18 -7 3 3 -2 9 -12 12 -14 6 -15 5 -6 -5z"/>
<path d="M13197 5093 c-13 -12 -7 -23 13 -23 13 0 18 5 14 15 -7 16 -17 19
-27 8z"/>
<path d="M13478 5093 c6 -2 10 -9 7 -14 -4 -5 1 -6 10 -2 13 5 14 7 3 14 -7 5
-17 8 -23 8 -5 0 -4 -3 3 -6z"/>
<path d="M13538 5083 c-4 -16 -1 -18 26 -14 23 4 26 6 11 9 -11 2 -23 9 -26
14 -3 5 -8 1 -11 -9z"/>
<path d="M13050 5080 c-13 -8 -12 -10 3 -10 9 0 17 5 17 10 0 12 -1 12 -20 0z"/>
<path d="M12953 5073 c9 -2 23 -2 30 0 6 3 -1 5 -18 5 -16 0 -22 -2 -12 -5z"/>
<path d="M13615 5059 c-4 -6 -13 -8 -19 -6 -7 3 -13 -1 -13 -9 0 -7 4 -11 9
-8 8 5 12 -9 9 -38 -3 -22 44 -25 52 -5 3 8 -1 14 -9 14 -7 0 -10 -5 -7 -10 3
-5 0 -8 -8 -5 -16 5 -19 34 -6 61 8 19 2 24 -8 6z"/>
<path d="M13484 5004 c0 -13 4 -24 9 -24 5 0 7 -9 4 -21 -4 -17 -3 -18 9 -8
10 8 11 15 4 24 -5 6 -7 15 -3 18 3 4 1 7 -6 7 -7 0 -10 4 -6 9 3 5 2 12 -3
15 -4 2 -8 -6 -8 -20z"/>
<path d="M13550 5012 c0 -5 7 -13 16 -16 22 -8 24 -8 24 6 0 6 -3 8 -7 5 -3
-4 -12 -2 -20 4 -8 7 -13 8 -13 1z"/>
<path d="M13635 4961 c-3 -5 -1 -12 5 -16 5 -3 10 1 10 9 0 18 -6 21 -15 7z"/>
<path d="M13580 4948 c0 -11 12 -10 30 2 12 7 10 9 -8 7 -12 0 -22 -5 -22 -9z"/>
<path d="M13526 4935 c-18 -13 -17 -14 12 -10 29 3 32 1 33 -23 2 -25 2 -25 6
-4 4 21 -11 52 -26 52 -3 0 -15 -7 -25 -15z"/>
<path d="M13608 4906 c5 -19 6 -19 12 -1 4 12 9 15 13 8 4 -6 4 -19 0 -29 -4
-12 -3 -15 5 -10 7 4 12 17 12 30 0 16 -6 22 -24 22 -18 0 -22 -4 -18 -20z"/>
<path d="M13530 4900 c-12 -7 -10 -9 8 -7 12 0 22 5 22 9 0 11 -12 10 -30 -2z"/>
<path d="M13525 4859 c-11 -16 -1 -19 13 -3 7 8 8 14 3 14 -5 0 -13 -5 -16
-11z"/>
<path d="M13572 4852 c9 -10 13 -11 16 -3 3 8 8 9 16 2 9 -8 13 -7 13 2 0 8
-12 13 -28 13 -24 0 -26 -2 -17 -14z"/>
<path d="M13460 4831 c0 -6 4 -13 10 -16 6 -3 7 1 4 9 -7 18 -14 21 -14 7z"/>
<path d="M13583 4815 c0 -7 6 -12 13 -11 23 3 26 13 6 18 -11 3 -19 0 -19 -7z"/>
<path d="M13545 4811 c-6 -11 13 -26 22 -17 4 3 1 6 -6 6 -7 0 -9 5 -6 10 3 6
4 10 1 10 -3 0 -7 -4 -11 -9z"/>
<path d="M13632 4780 c0 -14 2 -19 5 -12 2 6 2 18 0 25 -3 6 -5 1 -5 -13z"/>
<path d="M13533 4773 c4 -6 2 -13 -4 -15 -7 -2 -6 -8 3 -16 12 -9 14 -8 13 8
-1 11 -5 23 -10 27 -4 5 -5 3 -2 -4z"/>
<path d="M13450 4738 c0 -4 4 -8 9 -8 6 0 12 4 15 8 3 5 -1 9 -9 9 -8 0 -15
-4 -15 -9z"/>
<path d="M13631 4734 c0 -11 3 -14 6 -6 3 7 2 16 -1 19 -3 4 -6 -2 -5 -13z"/>
<path d="M13535 4710 c16 -18 17 -23 5 -30 -9 -6 -10 -10 -3 -10 29 0 25 43
-5 55 -13 5 -12 2 3 -15z"/>
<path d="M13600 4716 c0 -2 7 -7 16 -10 8 -3 12 -2 9 4 -6 10 -25 14 -25 6z"/>
<path d="M13496 4672 c-3 -5 1 -9 9 -9 8 0 12 4 9 9 -3 4 -7 8 -9 8 -2 0 -6
-4 -9 -8z"/>
<path d="M13585 4659 c4 -21 21 -39 38 -39 11 0 9 28 -3 35 -6 4 -7 -1 -3 -11
4 -12 3 -15 -5 -10 -7 4 -12 13 -12 21 0 8 -4 16 -9 20 -6 3 -8 -4 -6 -16z"/>
<path d="M13452 4645 c4 -4 3 -14 -4 -22 -6 -7 -9 -15 -7 -18 3 -2 10 4 17 15
9 15 9 21 -1 26 -6 4 -9 4 -5 -1z"/>
<path d="M13532 4630 c0 -14 2 -19 5 -12 2 6 2 18 0 25 -3 6 -5 1 -5 -13z"/>
<path d="M13485 4610 c-3 -6 1 -7 9 -4 18 7 21 14 7 14 -6 0 -13 -4 -16 -10z"/>
<path d="M13603 4604 c4 -4 2 -13 -4 -21 -8 -9 -8 -13 -1 -13 6 0 9 -6 6 -14
-3 -8 -1 -16 4 -20 5 -3 8 5 7 17 -1 12 2 27 7 33 5 8 2 14 -9 18 -10 4 -14 4
-10 0z"/>
<path d="M13520 4590 c0 -5 5 -10 10 -10 6 0 10 5 10 10 0 6 -4 10 -10 10 -5
0 -10 -4 -10 -10z"/>
<path d="M13445 4580 c3 -5 8 -10 11 -10 2 0 4 5 4 10 0 6 -5 10 -11 10 -5 0
-7 -4 -4 -10z"/>
<path d="M13560 4561 c-8 -6 -18 -7 -24 -4 -5 3 -6 1 -2 -5 12 -20 -4 -35 -21
-20 -15 12 -15 11 -2 -9 18 -30 27 -29 35 2 6 23 15 30 37 26 5 -1 6 3 2 9 -7
12 -6 12 -25 1z"/>
<path d="M13585 4521 c-3 -5 -1 -12 5 -16 5 -3 10 1 10 9 0 18 -6 21 -15 7z"/>
<path d="M13557 4513 c-10 -9 -9 -23 1 -23 5 0 9 7 9 15 0 17 -1 18 -10 8z"/>
<path d="M13428 4475 c-2 -19 0 -35 4 -35 4 0 8 16 8 35 0 19 -2 35 -4 35 -2
0 -6 -16 -8 -35z"/>
<path d="M13459 4491 c8 -5 10 -14 6 -22 -6 -11 -5 -11 5 -2 14 12 6 33 -13
33 -8 0 -7 -3 2 -9z"/>
<path d="M13515 4480 c-3 -5 -1 -18 4 -28 5 -10 7 -28 4 -40 -3 -13 -1 -22 6
-22 7 0 9 5 6 11 -4 5 1 19 11 30 17 19 17 20 -2 13 -19 -7 -19 -7 0 14 11 12
14 22 8 22 -7 0 -12 -4 -12 -10 0 -5 -5 -10 -11 -10 -6 0 -9 7 -5 15 6 17 0
20 -9 5z"/>
<path d="M13589 4481 c11 -7 10 -10 -5 -14 -16 -4 -17 -5 -1 -6 18 -1 25 -21
7 -21 -6 0 -5 -6 2 -14 11 -12 14 -10 19 13 6 27 -6 51 -25 51 -6 0 -5 -4 3
-9z"/>
<path d="M13430 4419 c0 -5 5 -7 10 -4 6 3 10 8 10 11 0 2 -4 4 -10 4 -5 0
-10 -5 -10 -11z"/>
<path d="M13575 4389 c4 -5 0 -9 -7 -9 -10 0 -9 -3 2 -10 9 -5 19 -5 27 2 19
15 16 24 -7 25 -11 1 -18 -2 -15 -8z"/>
<path d="M13430 4375 c8 -11 15 -21 16 -23 1 -2 5 5 8 15 4 9 4 14 0 10 -4 -4
-14 -1 -23 6 -14 11 -15 10 -1 -8z"/>
<path d="M13535 4320 c-3 -5 -1 -10 4 -10 6 0 11 5 11 10 0 6 -2 10 -4 10 -3
0 -8 -4 -11 -10z"/>
<path d="M13550 4290 c0 -6 7 -10 15 -10 8 0 15 2 15 4 0 2 -7 6 -15 10 -8 3
-15 1 -15 -4z"/>
<path d="M13416 4282 c-3 -4 4 -9 15 -9 23 -2 25 3 4 10 -8 4 -16 3 -19 -1z"/>
<path d="M13538 4263 c7 -3 16 -2 19 1 4 3 -2 6 -13 5 -11 0 -14 -3 -6 -6z"/>
<path d="M13415 4250 c3 -5 8 -10 11 -10 2 0 4 5 4 10 0 6 -5 10 -11 10 -5 0
-7 -4 -4 -10z"/>
<path d="M13520 4236 c0 -9 5 -16 10 -16 6 0 10 4 10 9 0 6 -4 13 -10 16 -5 3
-10 -1 -10 -9z"/>
<path d="M13551 4234 c0 -11 3 -14 6 -6 3 7 2 16 -1 19 -3 4 -6 -2 -5 -13z"/>
<path d="M13585 4240 c-3 -5 -1 -10 4 -10 6 0 11 5 11 10 0 6 -2 10 -4 10 -3
0 -8 -4 -11 -10z"/>
<path d="M13579 4218 c-5 -16 -4 -88 1 -88 4 0 8 20 8 45 1 25 0 45 -3 45 -3
0 -5 -1 -6 -2z"/>
<path d="M13450 4159 c0 -4 7 -9 15 -13 9 -3 15 0 15 8 0 7 -7 13 -15 13 -8 0
-15 -4 -15 -8z"/>
<path d="M13524 4144 c3 -21 16 -29 16 -10 0 11 5 15 13 10 6 -4 8 -3 4 1 -13
15 -35 14 -33 -1z"/>
<path d="M13485 4130 c-3 -5 -1 -10 4 -10 6 0 11 5 11 10 0 6 -2 10 -4 10 -3
0 -8 -4 -11 -10z"/>
<path d="M13387 4110 c10 -11 9 -18 -8 -36 l-21 -23 21 6 c12 3 19 8 16 11 -2
3 0 11 5 17 7 9 5 16 -7 26 -15 11 -16 11 -6 -1z"/>
<path d="M13505 4100 c-3 -6 1 -7 9 -4 18 7 21 14 7 14 -6 0 -13 -4 -16 -10z"/>
<path d="M13573 4095 c-3 -9 -3 -18 -1 -21 3 -3 8 4 11 16 6 23 -1 27 -10 5z"/>
<path d="M13280 4090 c-9 -6 -10 -10 -3 -10 6 0 15 5 18 10 8 12 4 12 -15 0z"/>
<path d="M13475 4080 c3 -5 8 -10 11 -10 2 0 4 5 4 10 0 6 -5 10 -11 10 -5 0
-7 -4 -4 -10z"/>
<path d="M13535 4079 c-4 -6 -5 -12 -2 -15 2 -3 7 2 10 11 7 17 1 20 -8 4z"/>
<path d="M13330 4046 c0 -2 7 -7 16 -10 8 -3 12 -2 9 4 -6 10 -25 14 -25 6z"/>
<path d="M13400 4040 c0 -5 5 -10 11 -10 5 0 7 5 4 10 -3 6 -8 10 -11 10 -2 0
-4 -4 -4 -10z"/>
<path d="M13535 4040 c3 -5 8 -10 11 -10 2 0 4 5 4 10 0 6 -5 10 -11 10 -5 0
-7 -4 -4 -10z"/>
<path d="M13571 4034 c0 -11 3 -14 6 -6 3 7 2 16 -1 19 -3 4 -6 -2 -5 -13z"/>
<path d="M13375 4030 c-3 -5 -1 -10 4 -10 6 0 11 5 11 10 0 6 -2 10 -4 10 -3
0 -8 -4 -11 -10z"/>
<path d="M13265 4000 c-3 -5 -1 -10 4 -10 6 0 11 5 11 10 0 6 -2 10 -4 10 -3
0 -8 -4 -11 -10z"/>
<path d="M13367 3995 c3 -8 9 -12 14 -9 12 7 11 11 -5 17 -10 4 -13 1 -9 -8z"/>
<path d="M12995 3990 c4 -6 11 -8 16 -5 14 9 11 15 -7 15 -8 0 -12 -5 -9 -10z"/>
<path d="M13061 3988 c-1 -22 8 -26 44 -17 l30 8 -32 -3 c-22 -2 -34 2 -36 13
-4 14 -5 13 -6 -1z"/>
<path d="M13210 3989 c0 -5 5 -7 10 -4 6 3 10 8 10 11 0 2 -4 4 -10 4 -5 0
-10 -5 -10 -11z"/>
<path d="M13456 3993 c-4 -5 -11 -8 -14 -8 -4 0 -18 -8 -32 -18 -13 -9 -19
-17 -13 -17 7 0 15 5 18 10 4 6 10 8 15 5 5 -3 12 0 16 6 4 8 9 7 15 -2 6 -10
8 -7 6 9 -1 25 -1 25 -11 15z"/>
<path d="M13275 3980 c-16 -7 -17 -9 -3 -9 9 -1 20 4 23 9 7 11 7 11 -20 0z"/>
<path d="M13232 3968 c1 -7 -3 -24 -10 -38 l-13 -25 18 24 c20 27 25 51 12 51
-6 0 -9 -6 -7 -12z"/>
<path d="M13545 3960 c-10 -11 -14 -20 -9 -20 5 0 2 -5 -6 -10 -13 -8 -12 -10
3 -10 12 0 17 6 15 18 -2 9 3 16 10 15 6 -2 12 4 12 12 0 20 -3 19 -25 -5z"/>
<path d="M12866 3953 c-6 -15 -8 -15 -16 -3 -8 12 -10 12 -10 1 0 -7 -6 -11
-15 -8 -8 4 -17 1 -21 -6 -4 -7 -4 -9 1 -5 4 4 14 0 22 -10 10 -12 16 -14 19
-4 3 6 12 12 20 12 9 0 13 4 9 9 -3 6 3 14 12 20 16 9 16 10 2 11 -9 0 -20 -8
-23 -17z"/>
<path d="M12980 3966 c0 -2 8 -10 18 -17 15 -13 16 -12 3 4 -13 16 -21 21 -21
13z"/>
<path d="M13135 3960 c-3 -5 -1 -10 4 -10 6 0 11 5 11 10 0 6 -2 10 -4 10 -3
0 -8 -4 -11 -10z"/>
<path d="M13178 3947 c3 -12 7 -15 12 -7 4 6 10 11 14 11 3 -1 5 2 4 6 -2 4
-10 8 -19 8 -11 1 -15 -4 -11 -18z"/>
<path d="M13078 3943 c7 -3 16 -2 19 1 4 3 -2 6 -13 5 -11 0 -14 -3 -6 -6z"/>
<path d="M13481 3928 c7 -13 6 -18 -2 -18 -7 0 -10 -3 -6 -6 3 -3 14 -1 24 5
10 6 13 11 6 11 -7 0 -10 6 -7 13 3 8 -2 14 -10 14 -11 0 -13 -5 -5 -19z"/>
<path d="M13143 3927 c0 -8 6 -14 14 -14 9 0 10 4 2 14 -6 7 -12 13 -14 13 -1
0 -2 -6 -2 -13z"/>
<path d="M13310 3920 c-6 -11 -8 -20 -6 -20 3 0 10 9 16 20 6 11 8 20 6 20 -3
0 -10 -9 -16 -20z"/>
<path d="M13111 3921 c-8 -5 -9 -11 -3 -15 5 -3 12 1 16 9 6 17 6 18 -13 6z"/>
<path d="M13373 3918 c-13 -6 -23 -15 -23 -20 0 -13 9 -10 32 12 24 22 23 23
-9 8z"/>
<path d="M12930 3916 c0 -2 7 -7 16 -10 8 -3 12 -2 9 4 -6 10 -25 14 -25 6z"/>
<path d="M12970 3911 c0 -5 6 -12 13 -14 6 -3 3 -6 -9 -6 -11 -1 -21 -8 -21
-16 0 -11 4 -12 14 -3 16 13 24 7 26 -21 1 -11 5 -17 9 -13 10 10 -10 82 -22
82 -6 0 -10 -4 -10 -9z"/>
<path d="M12783 3870 c0 -25 2 -35 4 -22 2 12 2 32 0 45 -2 12 -4 2 -4 -23z"/>
<path d="M13017 3897 c-8 -6 -7 -7 5 -4 9 3 18 2 20 -3 2 -4 9 -2 15 5 10 11
9 13 -8 12 -11 -1 -25 -5 -32 -10z"/>
<path d="M12845 3879 c-4 -6 -5 -12 -2 -15 2 -3 7 2 10 11 7 17 1 20 -8 4z"/>
<path d="M13085 3880 c-3 -5 1 -10 10 -10 9 0 13 5 10 10 -3 6 -8 10 -10 10
-2 0 -7 -4 -10 -10z"/>
<path d="M13220 3874 c0 -8 5 -12 10 -9 6 4 8 11 5 16 -9 14 -15 11 -15 -7z"/>
<path d="M12885 3870 c-3 -5 -2 -10 4 -10 5 0 13 5 16 10 3 6 2 10 -4 10 -5 0
-13 -4 -16 -10z"/>
<path d="M13150 3866 c0 -15 -12 -21 -33 -17 -5 1 -5 -4 -2 -10 4 -6 16 -9 26
-6 12 3 17 1 12 -5 -3 -7 -1 -8 5 -4 15 9 16 43 2 51 -5 3 -10 -1 -10 -9z"/>
<path d="M13335 3870 c-3 -5 -2 -10 4 -10 5 0 13 5 16 10 3 6 2 10 -4 10 -5 0
-13 -4 -16 -10z"/>
<path d="M13050 3866 c0 -2 7 -9 15 -16 13 -11 14 -10 9 4 -5 14 -24 23 -24
12z"/>
<path d="M12935 3850 c6 -10 3 -12 -13 -8 -27 7 -28 2 -3 -11 14 -8 20 -7 25
4 3 8 0 17 -6 21 -7 5 -8 2 -3 -6z"/>
<path d="M12813 3843 c-7 -2 -12 -14 -12 -26 1 -19 2 -20 6 -3 4 15 7 16 14 5
6 -11 9 -8 9 9 0 12 -1 22 -2 21 -2 0 -9 -3 -15 -6z"/>
<path d="M13028 3843 c16 -6 16 -25 -1 -21 -7 2 -14 0 -15 -4 -1 -5 0 -8 3 -8
3 0 14 0 24 0 14 0 18 5 14 20 -3 11 -13 20 -22 19 -10 0 -11 -2 -3 -6z"/>
<path d="M13208 3843 c7 -3 16 -2 19 1 4 3 -2 6 -13 5 -11 0 -14 -3 -6 -6z"/>
<path d="M13245 3840 c-3 -6 1 -7 9 -4 18 7 21 14 7 14 -6 0 -13 -4 -16 -10z"/>
<path d="M12877 3815 c-4 -8 -1 -17 5 -21 6 -4 8 -3 4 4 -10 17 7 22 22 6 7
-8 8 -14 2 -14 -5 0 -10 -4 -10 -10 0 -5 7 -7 15 -4 11 4 13 2 9 -9 -7 -19 11
-30 37 -22 19 7 20 8 3 26 -9 11 -19 17 -22 14 -3 -2 -13 7 -24 20 -22 29 -33
31 -41 10z m76 -49 c4 -10 1 -13 -8 -9 -8 3 -12 9 -9 14 7 12 11 11 17 -5z"/>
<path d="M13180 3821 c0 -5 9 -7 20 -4 11 3 20 7 20 9 0 2 -9 4 -20 4 -11 0
-20 -4 -20 -9z"/>
<path d="M13130 3810 c0 -5 5 -10 11 -10 5 0 7 5 4 10 -3 6 -8 10 -11 10 -2 0
-4 -4 -4 -10z"/>
<path d="M13069 3790 c-10 -6 -33 -11 -52 -12 -23 -2 -33 -7 -30 -15 3 -7 10
-10 17 -6 6 4 18 9 26 10 25 4 86 32 70 32 -8 0 -22 -4 -31 -9z"/>
<path d="M12825 3759 c-4 -6 -5 -13 -2 -16 7 -7 27 6 27 18 0 12 -17 12 -25
-2z"/>
<path d="M12787 3743 c-4 -3 -7 -18 -7 -31 0 -32 11 -23 14 12 3 28 3 30 -7
19z"/>
<path d="M12870 3729 c-40 -21 -37 -24 9 -8 17 6 31 15 31 20 0 5 -1 9 -2 8
-2 -1 -19 -9 -38 -20z"/>
<path d="M12871 4721 c-8 -6 -9 -11 -3 -15 6 -3 14 -1 17 5 9 14 2 20 -14 10z"/>
<path d="M13060 4726 c0 -2 9 -6 20 -9 11 -3 20 -1 20 4 0 5 -9 9 -20 9 -11 0
-20 -2 -20 -4z"/>
<path d="M12901 4704 c0 -11 3 -14 6 -6 3 7 2 16 -1 19 -3 4 -6 -2 -5 -13z"/>
<path d="M13043 4690 c1 -12 8 -20 19 -20 19 0 34 18 23 28 -3 3 -10 0 -15 -8
-9 -14 -14 -7 -11 13 0 4 -3 7 -8 7 -6 0 -9 -9 -8 -20z"/>
<path d="M12924 4679 c-3 -6 -1 -16 6 -22 10 -9 11 -9 5 2 -4 8 -2 17 6 22 9
6 10 9 2 9 -6 0 -15 -5 -19 -11z"/>
<path d="M12840 4670 c0 -5 5 -10 11 -10 5 0 7 5 4 10 -3 6 -8 10 -11 10 -2 0
-4 -4 -4 -10z"/>
<path d="M13078 4634 c-6 -24 -38 -28 -38 -6 0 9 -2 13 -5 10 -13 -13 7 -54
26 -54 20 0 35 33 27 58 -3 7 -7 4 -10 -8z"/>
<path d="M12917 4633 c-12 -12 -7 -31 9 -37 14 -5 15 -4 5 8 -7 8 -10 20 -6
26 7 11 2 14 -8 3z"/>
<path d="M12846 4622 c-3 -5 1 -9 9 -9 8 0 12 4 9 9 -3 4 -7 8 -9 8 -2 0 -6
-4 -9 -8z"/>
<path d="M12980 4616 c0 -2 7 -7 16 -10 8 -3 12 -2 9 4 -6 10 -25 14 -25 6z"/>
<path d="M12890 4571 c0 -6 4 -13 10 -16 6 -3 7 1 4 9 -7 18 -14 21 -14 7z"/>
<path d="M12930 4560 c-8 -15 -8 -18 3 -14 8 3 14 11 14 19 0 20 -4 19 -17 -5z"/>
<path d="M13042 4573 c-18 -7 -4 -23 19 -23 12 0 19 5 17 12 -5 14 -18 18 -36
11z"/>
<path d="M12943 4525 c-17 -19 -16 -30 0 -16 8 6 17 8 21 4 4 -4 4 0 0 10 -7
20 -6 20 -21 2z"/>
<path d="M12845 4510 c-3 -6 1 -7 9 -4 18 7 21 14 7 14 -6 0 -13 -4 -16 -10z"/>
<path d="M13027 4503 c-10 -9 13 -33 32 -33 14 -1 14 -2 -1 -11 -10 -5 -18
-16 -18 -24 0 -7 -6 -16 -12 -18 -8 -3 -6 -6 4 -6 12 -1 16 -6 11 -18 -4 -14
-2 -13 10 3 15 20 22 50 19 88 -2 15 -5 16 -17 6 -13 -11 -14 -10 -9 4 6 16
-6 22 -19 9z"/>
<path d="M12938 4483 c7 -3 16 -2 19 1 4 3 -2 6 -13 5 -11 0 -14 -3 -6 -6z"/>
<path d="M12801 4444 c0 -11 3 -14 6 -6 3 7 2 16 -1 19 -3 4 -6 -2 -5 -13z"/>
<path d="M12992 4410 c7 -11 17 -20 22 -20 5 0 1 9 -9 20 -10 11 -20 20 -22
20 -2 0 2 -9 9 -20z"/>
<path d="M12900 4391 c0 -12 -4 -20 -9 -17 -5 4 -7 -4 -3 -16 3 -14 7 -17 10
-9 4 11 6 11 13 0 6 -9 8 -3 6 19 -4 38 -17 56 -17 23z"/>
<path d="M12788 4393 c7 -3 16 -2 19 1 4 3 -2 6 -13 5 -11 0 -14 -3 -6 -6z"/>
<path d="M12930 4365 c0 -9 6 -12 15 -9 8 4 12 10 9 15 -8 14 -24 10 -24 -6z"/>
<path d="M12990 4370 c-9 -6 -10 -10 -3 -10 6 0 15 5 18 10 8 12 4 12 -15 0z"/>
</g>
</svg>
